<svg width="980" height="360" viewBox="0 0 980 360" version="1.1" xmlns="http://www.w3.org/2000/svg" xmlns:xlink="http://www.w3.org/1999/xlink">
<title>Footer</title>
<desc>Created using Figma</desc>
<g id="Canvas" transform="translate(10785 -16517)">
<g id="Footer">
<g id="Rechthoek 743 kopi&#195;&#171;ren">
<use xlink:href="#path0_fill" transform="translate(-10649.7 16556.1)" fill="#DBE7F8"/>
</g>
<g id="Vorm 881 kopi&#195;&#171;ren">
<use xlink:href="#path1_fill" transform="translate(-10649.8 16584.1)" fill="#C6D5E9"/>
</g>
<g id="Raampjes">
<g id="Rechthoek 754 kopi&#195;&#171;ren 13">
<use xlink:href="#path2_fill" transform="translate(-10617.2 16598.7)" fill="#F3F6F7"/>
</g>
<g id="Rechthoek 754 kopi&#195;&#171;ren 13">
<use xlink:href="#path2_fill" transform="translate(-10640.2 16610.4)" fill="#F3F6F7"/>
</g>
<g id="Rechthoek 754 kopi&#195;&#171;ren 13">
<use xlink:href="#path2_fill" transform="translate(-10617.2 16610.4)" fill="#F3F6F7"/>
</g>
<g id="Rechthoek 754 kopi&#195;&#171;ren 13">
<use xlink:href="#path2_fill" transform="translate(-10547.6 16623.5)" fill="#F3F6F7"/>
</g>
<g id="Rechthoek 754 kopi&#195;&#171;ren 13">
<use xlink:href="#path2_fill" transform="translate(-10570.7 16635.2)" fill="#F3F6F7"/>
</g>
<g id="Rechthoek 754 kopi&#195;&#171;ren 13">
<use xlink:href="#path2_fill" transform="translate(-10582.4 16652.6)" fill="#F3F6F7"/>
</g>
<g id="Rechthoek 754 kopi&#195;&#171;ren 13">
<use xlink:href="#path2_fill" transform="translate(-10480.2 16608.7)" fill="#F3F6F7"/>
</g>
<g id="Rechthoek 754 kopi&#195;&#171;ren 13">
<use xlink:href="#path2_fill" transform="translate(-10547.6 16635.2)" fill="#F3F6F7"/>
</g>
</g>
<g id="Afgeronde rechthoek 3 kopi&#195;&#171;ren 3">
<use xlink:href="#path3_fill" transform="translate(-10731.4 16817)" fill="#DBE7F8"/>
</g>
<g id="Rechthoek 759 kopi&#195;&#171;ren 2">
<use xlink:href="#path4_fill" transform="translate(-10713.7 16826.6)" fill="#C6D5E9"/>
</g>
<g id="Rechthoek 759 kopi&#195;&#171;ren 2">
<use xlink:href="#path5_fill" transform="translate(-10539.2 16826.6)" fill="#C6D5E9"/>
</g>
<g id="Vorm 22 kopi&#195;&#171;ren 5">
<use xlink:href="#path6_fill" transform="translate(-10280.9 16774.6)" fill="url(#paint13_linear)"/>
</g>
<g id="Vorm 22 kopi&#195;&#171;ren 5">
<use xlink:href="#path7_fill" transform="translate(-10289.1 16773.7)" fill="url(#paint14_linear)"/>
</g>
<g id="Vorm 42 kopi&#195;&#171;ren">
<use xlink:href="#path8_fill" transform="translate(-10429.3 16732.6)" fill="url(#paint15_linear)"/>
</g>
<g id="Vorm 41 kopi&#195;&#171;ren">
<use xlink:href="#path9_fill" transform="translate(-10450.8 16761.8)" fill="#4C89DC"/>
</g>
<g id="face kopi&#195;&#171;ren 10">
<use xlink:href="#path10_fill" transform="translate(-10460.3 16643.3)" fill="url(#paint17_linear)"/>
</g>
<g id="Afgeronde rechthoek 4 kopi&#195;&#171;ren 3">
<use xlink:href="#path11_fill" transform="translate(-10468.6 16793.9)" fill="#FFC000"/>
</g>
<g id="Afgeronde rechthoek 4 kopi&#195;&#171;ren 3">
<use xlink:href="#path12_fill" transform="translate(-10428.3 16793.4)" fill="#FFC000"/>
</g>
<g id="Vorm 46 kopi&#195;&#171;ren">
<use xlink:href="#path13_fill" transform="translate(-10493.1 16698.5)" fill="url(#paint20_linear)"/>
</g>
<g id="haar kopi&#195;&#171;ren 9">
<use xlink:href="#path14_fill" transform="translate(-10482.1 16636.3)" fill="#2F134F"/>
</g>
<g id="Vorm 21 kopi&#195;&#171;ren 5">
<use xlink:href="#path15_fill" transform="translate(-10272.9 16760.4)" fill="#152C97"/>
</g>
<g id="Rechthoek 17 kopi&#195;&#171;ren 2">
<use xlink:href="#path16_fill" transform="translate(-10267.4 16760.1)" fill="#FFFFFF"/>
</g>
<g id="Vorm 21 kopi&#195;&#171;ren 5">
<use xlink:href="#path17_fill" transform="translate(-10280.9 16756.8)" fill="#152C97"/>
</g>
<g id="Rechthoek 17 kopi&#195;&#171;ren 2">
<use xlink:href="#path18_fill" transform="translate(-10272 16756.4)" fill="#FFFFFF"/>
</g>
<g id="Mok">
<use xlink:href="#path19_fill" transform="translate(-10429.3 16660.3)" fill="#2149B2"/>
</g>
<g id="Vorm 38 kopi&#195;&#171;ren">
<use xlink:href="#path20_fill" transform="translate(-10422.4 16666.3)" fill="url(#paint27_linear)"/>
</g>
<g id="Arm achter">
<g id="Vorm 40 kopi&#195;&#171;ren">
<use xlink:href="#path21_fill" transform="translate(-10445.5 16690.4)" fill="url(#paint28_linear)"/>
</g>
</g>
<g id="Borst">
<g id="Vorm 35 kopi&#195;&#171;ren">
<use xlink:href="#path22_fill" transform="translate(-10475.9 16685.8)" fill="url(#paint29_linear)"/>
</g>
</g>
<g id="Vorm 44 kopi&#195;&#171;ren">
<use xlink:href="#path23_fill" transform="translate(-10458 16684.9)" fill="#FFFFFF"/>
</g>
<g id="Vorm 36 kopi&#195;&#171;ren">
<use xlink:href="#path24_fill" transform="translate(-10489.5 16694.4)" fill="#F63349"/>
</g>
<g id="Vorm 37 kopi&#195;&#171;ren">
<use xlink:href="#path25_fill" transform="translate(-10438.1 16753.8)" fill="url(#paint32_linear)"/>
</g>
<g id="Afgeronde rechthoek 4 kopi&#195;&#171;ren 3">
<use xlink:href="#path26_fill" transform="translate(-10269.5 16793.4)" fill="#DBE7F8"/>
</g>
<g id="Afgeronde rechthoek 4 kopi&#195;&#171;ren 3">
<use xlink:href="#path27_fill" transform="translate(-10319 16793.9)" fill="#DBE7F8"/>
</g>
<g id="Afgeronde rechthoek 3 kopi&#195;&#171;ren 3">
<use xlink:href="#path28_fill" transform="translate(-10317.2 16788.7)" fill="#C6D5E9"/>
</g>
<g id="Rechthoek 21 kopi&#195;&#171;ren 2">
<use xlink:href="#path29_fill" transform="translate(-10288.9 16681.8)" fill="#2E134F"/>
</g>
<g id="Rechthoek 21 kopi&#195;&#171;ren 2">
<use xlink:href="#path30_fill" transform="translate(-10286.8 16684)" fill="#51338F"/>
</g>
<g id="Rechthoek 22 kopi&#195;&#171;ren">
<use xlink:href="#path31_fill" transform="translate(-10302 16732.6)" fill="#2E134F"/>
</g>
<g id="Rechthoek 8 kopi&#195;&#171;ren 4" filter="url(#filter0_d)">
<use xlink:href="#path32_fill" transform="translate(-10279.8 16662.6)" fill="#FFFFFF"/>
</g>
<g id="Rechthoek 9 kopi&#195;&#171;ren 10">
<use xlink:href="#path33_fill" transform="translate(-10276.3 16674.8)" fill="#4C89DC"/>
</g>
<g id="Rechthoek 9 kopi&#195;&#171;ren 11">
<use xlink:href="#path34_fill" transform="translate(-10279.8 16662.6)" fill="#152B97"/>
</g>
<g id="Rechthoek 9 kopi&#195;&#171;ren 10">
<use xlink:href="#path35_fill" transform="translate(-10276.3 16678.3)" fill="#4C89DC"/>
</g>
<g id="Rechthoek 10 kopi&#195;&#171;ren 2">
<use xlink:href="#path36_fill" transform="translate(-10276.3 16683.9)" fill="#4C89DC"/>
</g>
<g id="Rechthoek 8 kopi&#195;&#171;ren 4" filter="url(#filter1_d)">
<use xlink:href="#path37_fill" transform="translate(-10219.3 16629.6)" fill="#FFFFFF"/>
</g>
<g id="Rechthoek 9 kopi&#195;&#171;ren 11">
<use xlink:href="#path38_fill" transform="translate(-10219.3 16629.6)" fill="#152B97"/>
</g>
<g id="Groep 35">
<g id="Rechthoek 9 kopi&#195;&#171;ren 10">
<use xlink:href="#path39_fill" transform="translate(-10216.7 16639.6)" fill="#4C89DC"/>
</g>
<g id="Rechthoek 9 kopi&#195;&#171;ren 10">
<use xlink:href="#path40_fill" transform="translate(-10216.7 16642.6)" fill="#4C89DC"/>
</g>
<g id="Rechthoek 10 kopi&#195;&#171;ren 2">
<use xlink:href="#path41_fill" transform="translate(-10216.7 16646.5)" fill="#4C89DC"/>
</g>
</g>
<g id="Rechthoek 8 kopi&#195;&#171;ren 4" filter="url(#filter2_d)">
<use xlink:href="#path42_fill" transform="translate(-10265.9 16607)" fill="#FFFFFF"/>
</g>
<g id="Rechthoek 9 kopi&#195;&#171;ren 10">
<use xlink:href="#path43_fill" transform="translate(-10263.7 16615.2)" fill="#4C89DC"/>
</g>
<g id="Rechthoek 9 kopi&#195;&#171;ren 11">
<use xlink:href="#path44_fill" transform="translate(-10265.9 16607)" fill="#152B97"/>
</g>
<g id="Rechthoek 9 kopi&#195;&#171;ren 10">
<use xlink:href="#path45_fill" transform="translate(-10263.7 16617.8)" fill="#4C89DC"/>
</g>
<g id="Rechthoek 10 kopi&#195;&#171;ren 2">
<use xlink:href="#path46_fill" transform="translate(-10263.7 16621.3)" fill="#4C89DC"/>
</g>
<g id="Rechthoek 20 kopi&#195;&#171;ren 3">
<use xlink:href="#path47_fill" transform="translate(-9995.43 16732.2)" fill="#C6D5E9"/>
</g>
<g id="Rechthoek 28 kopi&#195;&#171;ren 7">
<use xlink:href="#path48_fill" transform="translate(-9989.58 16737.3)" fill="#DBE7F8"/>
</g>
<g id="Rechthoek 28 kopi&#195;&#171;ren 7">
<use xlink:href="#path49_fill" transform="translate(-9902.97 16737.3)" fill="#DBE7F8"/>
</g>
<g id="Ovaal 6 kopi&#195;&#171;ren 7">
<use xlink:href="#path50_fill" transform="translate(-9915.73 16801.7)" fill="#C6D5E9"/>
</g>
<g id="Ovaal 6 kopi&#195;&#171;ren 7">
<use xlink:href="#path51_fill" transform="translate(-9898.13 16801.7)" fill="#C6D5E9"/>
</g>
<g id="Vorm 48 kopi&#195;&#171;ren 2">
<use xlink:href="#path52_fill" transform="translate(-10602.5 16701.5)" fill="url(#paint59_linear)"/>
</g>
<g id="Vorm 50 kopi&#195;&#171;ren 2">
<use xlink:href="#path53_fill" transform="translate(-10622.8 16761.5)" fill="url(#paint60_linear)"/>
</g>
<g id="Vorm 49 kopi&#195;&#171;ren 2">
<use xlink:href="#path54_fill" transform="translate(-10578.1 16743.1)" fill="url(#paint61_linear)"/>
</g>
<g id="Vorm 47 kopi&#195;&#171;ren 2">
<use xlink:href="#path55_fill" transform="translate(-10617.5 16736.8)" fill="url(#paint62_linear)"/>
</g>
<g id="Rechthoek 25 kopi&#195;&#171;ren 2">
<use xlink:href="#path56_fill" transform="translate(-10599.6 16786.4)" fill="#DBE7F8"/>
</g>
<g id="Rechthoek 27 kopi&#195;&#171;ren 3">
<use xlink:href="#path57_fill" transform="translate(-10602.8 16786.1)" fill="#C6D5E9"/>
</g>
<g id="Bureau">
<g id="Rechthoek 20 kopi&#195;&#171;ren 3">
<use xlink:href="#path58_fill" transform="translate(-10333.7 16746.5)" fill="#DBE7F8"/>
</g>
<g id="Afgeronde rechthoek 3 kopi&#195;&#171;ren 3">
<use xlink:href="#path59_fill" transform="translate(-10344.7 16737.4)" fill="#C6D5E9"/>
</g>
<g id="Rechthoek 20 kopi&#195;&#171;ren 3">
<use xlink:href="#path60_fill" transform="translate(-10206.7 16746.5)" fill="#C6D5E9"/>
</g>
<g id="Rechthoek 28 kopi&#195;&#171;ren 7">
<use xlink:href="#path61_fill" transform="translate(-10204.1 16750.5)" fill="#DBE7F8"/>
</g>
<g id="Rechthoek 28 kopi&#195;&#171;ren 7">
<use xlink:href="#path61_fill" transform="translate(-10204.1 16774.8)" fill="#DBE7F8"/>
</g>
<g id="Rechthoek 28 kopi&#195;&#171;ren 7">
<use xlink:href="#path61_fill" transform="translate(-10204.1 16798.7)" fill="#DBE7F8"/>
</g>
<g id="Rechthoek 28 kopi&#195;&#171;ren 7">
<use xlink:href="#path61_fill" transform="translate(-10204.1 16823.1)" fill="#DBE7F8"/>
</g>
<g id="Rechthoek 28 kopi&#195;&#171;ren 7">
<use xlink:href="#path61_fill" transform="translate(-10204.1 16847)" fill="#DBE7F8"/>
</g>
<g id="Ovaal 6 kopi&#195;&#171;ren 7">
<use xlink:href="#path62_fill" transform="translate(-10184.8 16759.3)" fill="#C6D5E9"/>
</g>
<g id="Ovaal 6 kopi&#195;&#171;ren 7">
<use xlink:href="#path63_fill" transform="translate(-10184.8 16784.5)" fill="#C6D5E9"/>
</g>
<g id="Ovaal 6 kopi&#195;&#171;ren 7">
<use xlink:href="#path51_fill" transform="translate(-10184.8 16808.1)" fill="#C6D5E9"/>
</g>
<g id="Ovaal 6 kopi&#195;&#171;ren 7">
<use xlink:href="#path64_fill" transform="translate(-10184 16832.6)" fill="#C6D5E9"/>
</g>
<g id="Ovaal 6 kopi&#195;&#171;ren 7">
<use xlink:href="#path65_fill" transform="translate(-10184.8 16855.5)" fill="#C6D5E9"/>
</g>
</g>
<g id="Vorm 886 kopi&#195;&#171;ren">
<use xlink:href="#path66_fill" transform="translate(-10109.4 16802.1)" fill="#DBE7F8"/>
</g>
<g id="Vorm 885 kopi&#195;&#171;ren">
<use xlink:href="#path67_fill" transform="translate(-10145.4 16798.3)" fill="#DBE7F8"/>
</g>
<g id="Vorm 884 kopi&#195;&#171;ren">
<use xlink:href="#path68_fill" transform="translate(-10147.5 16808)" fill="#C6D5E9"/>
</g>
<g id="Afgeronde rechthoek 6 kopi&#195;&#171;ren">
<use xlink:href="#path69_fill" transform="translate(-10131.2 16816.2)" fill="#F3F6F7"/>
</g>
<g id="Afgeronde rechthoek 5 kopi&#195;&#171;ren 2">
<use xlink:href="#path70_fill" transform="translate(-9967.61 16676.1)" fill="#C6D5E9"/>
</g>
<g id="Rechthoek 748 kopi&#195;&#171;ren 2">
<use xlink:href="#path71_fill" transform="translate(-9964.57 16683.5)" fill="#DBE7F8"/>
</g>
<g id="Rechthoek 744 kopi&#195;&#171;ren 2">
<use xlink:href="#path72_fill" transform="translate(-9979.78 16708.7)" fill="#DBE7F8"/>
</g>
<g id="Vorm 879 kopi&#195;&#171;ren 2">
<use xlink:href="#path73_fill" transform="translate(-9980.22 16703.7)" fill="#C6D5E9"/>
</g>
<g id="Rechthoek 745 kopi&#195;&#171;ren 2">
<use xlink:href="#path74_fill" transform="translate(-9966.18 16719)" fill="#DBE7F8"/>
</g>
<g id="Groep 29">
<path d="M -9941.09 16723.1L -9925 16723.1L -9925 16739.2L -9941.09 16739.2L -9941.09 16723.1Z" fill="#C6D5E9"/>
<g id="Rechthoek 746 kopi&#195;&#171;ren 2">
<use xlink:href="#path75_fill" transform="translate(-9941.09 16723.1)" fill="#C6D5E9"/>
</g>
</g>
<g id="Rechthoek 749 kopi&#195;&#171;ren 4">
<use xlink:href="#path76_fill" transform="translate(-9961.96 16733.5)" fill="#C6D5E9"/>
</g>
<g id="Rechthoek 749 kopi&#195;&#171;ren 4">
<use xlink:href="#path76_fill" transform="translate(-9961.96 16728.7)" fill="#C6D5E9"/>
</g>
<g id="Rechthoek 749 kopi&#195;&#171;ren 4">
<use xlink:href="#path76_fill" transform="translate(-9961.96 16723.5)" fill="#C6D5E9"/>
</g>
<g id="Rechthoek 747 kopi&#195;&#171;ren 2">
<use xlink:href="#path77_fill" transform="translate(-9975.43 16717.8)" fill="#C6D5E9"/>
</g>
<g id="Rechthoek 750 kopi&#195;&#171;ren 2">
<use xlink:href="#path78_fill" transform="translate(-10058.9 16628.3)" fill="#C6D5E9"/>
</g>
<g id="Rechthoek 750 kopi&#195;&#171;ren 2">
<use xlink:href="#path79_fill" transform="translate(-10057.2 16630.9)" fill="#FFFFFF"/>
</g>
<g id="Rechthoek 751 kopi&#195;&#171;ren">
<use xlink:href="#path80_fill" transform="translate(-10046.7 16642.3)" fill="#DBE7F8"/>
</g>
<g id="Ovaal 690 kopi&#195;&#171;ren">
<use xlink:href="#path81_fill" transform="translate(-10716.1 16614.1)" fill="#C6D5E9"/>
</g>
<g id="Rechthoek 757 kopi&#195;&#171;ren">
<use xlink:href="#path82_fill" transform="translate(-10730.6 16567.8)" fill="#DBE7F8"/>
</g>
<g id="Vorm 883 kopi&#195;&#171;ren">
<use xlink:href="#path83_stroke" transform="translate(-10709.8 16555.3)" fill="#DBE7F8"/>
</g>
<g id="Rechthoek 758 kopi&#195;&#171;ren">
<use xlink:href="#path84_fill" transform="translate(-10702.5 16863.9)" fill="#C6D5E9"/>
</g>
<g id="Rechthoek 755 kopi&#195;&#171;ren 2">
<use xlink:href="#path85_fill" transform="translate(-9938.91 16570)" fill="#C6D5E9"/>
</g>
<g id="Rechthoek 755 kopi&#195;&#171;ren 2">
<use xlink:href="#path86_fill" transform="translate(-9933.7 16574.8)" fill="#DBE7F8"/>
</g>
<g id="Rechthoek 756 kopi&#195;&#171;ren 5">
<use xlink:href="#path87_fill" transform="translate(-9926.7 16584.1)" fill="#C6D5E9"/>
</g>
<g id="Rechthoek 756 kopi&#195;&#171;ren 5">
<use xlink:href="#path88_fill" transform="translate(-9892.27 16589.7)" fill="#C6D5E9"/>
</g>
<g id="Rechthoek 756 kopi&#195;&#171;ren 5">
<use xlink:href="#path89_fill" transform="translate(-9924.53 16606.5)" fill="#C6D5E9"/>
</g>
<g id="Rechthoek 756 kopi&#195;&#171;ren 5">
<use xlink:href="#path90_fill" transform="translate(-9865.06 16619.4)" fill="#C6D5E9"/>
</g>
<g id="Rechthoek 756 kopi&#195;&#171;ren 5">
<use xlink:href="#path91_fill" transform="translate(-9845.83 16584.1)" fill="#C6D5E9"/>
</g>
<g id="Ovaal 689 kopi&#195;&#171;ren">
<use xlink:href="#path92_stroke" transform="translate(-10042 16520)" fill="#D4E0EF"/>
</g>
<g id="Vorm 880 kopi&#195;&#171;ren">
<use xlink:href="#path93_stroke" transform="translate(-10009.4 16530.4)" fill="#C6D5E9"/>
</g>
<g id="Vorm 48 kopi&#195;&#171;ren 3">
<use xlink:href="#path94_fill" transform="translate(-9873.94 16645.8)" fill="url(#paint108_linear)"/>
</g>
<g id="Vorm 50 kopi&#195;&#171;ren 3">
<use xlink:href="#path95_fill" transform="translate(-9859.73 16689.5)" fill="url(#paint109_linear)"/>
</g>
<g id="Vorm 47 kopi&#195;&#171;ren 3">
<use xlink:href="#path96_fill" transform="translate(-9860.3 16671.5)" fill="url(#paint110_linear)"/>
</g>
<g id="Vorm 49 kopi&#195;&#171;ren 3">
<use xlink:href="#path97_fill" transform="translate(-9893.89 16676.1)" fill="url(#paint111_linear)"/>
</g>
<g id="Rechthoek 25 kopi&#195;&#171;ren 2">
<use xlink:href="#path98_fill" transform="translate(-9872.17 16706.7)" fill="#DBE7F8"/>
</g>
<g id="Rechthoek 27 kopi&#195;&#171;ren 3">
<use xlink:href="#path99_fill" transform="translate(-9874.57 16706.5)" fill="#C6D5E9"/>
</g>
<g id="Rechthoek 760 kopi&#195;&#171;ren 2">
<use xlink:href="#path100_fill" transform="translate(-10785 16698.7)" fill="#C6D5E9"/>
</g>
<g id="Rechthoek 760 kopi&#195;&#171;ren 2">
<use xlink:href="#path101_fill" transform="translate(-10785 16756.4)" fill="#C6D5E9"/>
</g>
<g id="Rechthoek 761 kopi&#195;&#171;ren 5">
<use xlink:href="#path102_fill" transform="translate(-10763.4 16648.2)" fill="#DBE7F8"/>
</g>
<g id="Rechthoek 761 kopi&#195;&#171;ren 5">
<use xlink:href="#path103_fill" transform="translate(-10751.2 16661.1)" fill="#DBE7F8"/>
</g>
<g id="Rechthoek 761 kopi&#195;&#171;ren 5">
<use xlink:href="#path104_fill" transform="translate(-10775.4 16661)" fill="#DBE7F8"/>
</g>
<g id="Rechthoek 761 kopi&#195;&#171;ren 5">
<use xlink:href="#path105_fill" transform="translate(-10763.4 16717.1)" fill="#DBE7F8"/>
</g>
<g id="Rechthoek 761 kopi&#195;&#171;ren 5">
<use xlink:href="#path106_fill" transform="translate(-10775.4 16719.2)" fill="#DBE7F8"/>
</g>
<g id="Rechthoek 761 kopi&#195;&#171;ren 5">
<use xlink:href="#path107_fill" transform="translate(-10751.4 16718.7)" fill="#DBE7F8"/>
</g>
<g id="Rechthoek 761 kopi&#195;&#171;ren 5">
<use xlink:href="#path108_fill" transform="translate(-10745 16725.9)" fill="#DBE7F8"/>
</g>
</g>
</g>
<defs>
<filter id="filter0_d" filterUnits="userSpaceOnUse" x="-10280" y="16662" width="61" height="64" color-interpolation-filters="sRGB">
<feFlood flood-opacity="0" result="BackgroundImageFix"/>
<feColorMatrix in="SourceAlpha" type="matrix" values="0 0 0 0 0 0 0 0 0 0 0 0 0 0 0 0 0 0 255 0"/>
<feOffset dx="7.873" dy="9.057"/>
<feGaussianBlur stdDeviation="1"/>
<feColorMatrix type="matrix" values="0 0 0 0 0.776471 0 0 0 0 0.835294 0 0 0 0 0.913725 0 0 0 0.05 0"/>
<feBlend mode="normal" in2="BackgroundImageFix" result="effect1_dropShadow"/>
<feBlend mode="normal" in="SourceGraphic" in2="effect1_dropShadow" result="shape"/>
</filter>
<filter id="filter1_d" filterUnits="userSpaceOnUse" x="-10220" y="16629" width="51" height="53" color-interpolation-filters="sRGB">
<feFlood flood-opacity="0" result="BackgroundImageFix"/>
<feColorMatrix in="SourceAlpha" type="matrix" values="0 0 0 0 0 0 0 0 0 0 0 0 0 0 0 0 0 0 255 0"/>
<feOffset dx="7.873" dy="9.057"/>
<feGaussianBlur stdDeviation="1"/>
<feColorMatrix type="matrix" values="0 0 0 0 0.776471 0 0 0 0 0.835294 0 0 0 0 0.913725 0 0 0 0.45 0"/>
<feBlend mode="normal" in2="BackgroundImageFix" result="effect1_dropShadow"/>
<feBlend mode="normal" in="SourceGraphic" in2="effect1_dropShadow" result="shape"/>
</filter>
<filter id="filter2_d" filterUnits="userSpaceOnUse" x="-10266" y="16606" width="45" height="48" color-interpolation-filters="sRGB">
<feFlood flood-opacity="0" result="BackgroundImageFix"/>
<feColorMatrix in="SourceAlpha" type="matrix" values="0 0 0 0 0 0 0 0 0 0 0 0 0 0 0 0 0 0 255 0"/>
<feOffset dx="7.873" dy="9.057"/>
<feGaussianBlur stdDeviation="1"/>
<feColorMatrix type="matrix" values="0 0 0 0 0.776471 0 0 0 0 0.835294 0 0 0 0 0.913725 0 0 0 0.45 0"/>
<feBlend mode="normal" in2="BackgroundImageFix" result="effect1_dropShadow"/>
<feBlend mode="normal" in="SourceGraphic" in2="effect1_dropShadow" result="shape"/>
</filter>
<linearGradient id="paint13_linear" x1="0" y1="0" x2="1" y2="0" gradientUnits="userSpaceOnUse" gradientTransform="matrix(16.5324 2.91272e-13 -8.13911e-13 42.759 -0.329278 -21.3795)">
<stop offset="0" stop-color="#FFBC7E"/>
<stop offset="1" stop-color="#FED8B5"/>
</linearGradient>
<linearGradient id="paint14_linear" x1="0" y1="0" x2="1" y2="0" gradientUnits="userSpaceOnUse" gradientTransform="matrix(14.826 2.87575e-13 -7.29903e-13 42.2162 -0.295291 -21.1081)">
<stop offset="0" stop-color="#FFBC7E"/>
<stop offset="1" stop-color="#FED8B5"/>
</linearGradient>
<linearGradient id="paint15_linear" x1="0" y1="0" x2="1" y2="0" gradientUnits="userSpaceOnUse" gradientTransform="matrix(56.4716 -22.584 57.0522 142.601 0.251876 -40.2729)">
<stop offset="0.038674" stop-color="#2B5DBE"/>
<stop offset="0.955801" stop-color="#5B9BE2"/>
</linearGradient>
<linearGradient id="paint17_linear" x1="0" y1="0" x2="1" y2="0" gradientUnits="userSpaceOnUse" gradientTransform="matrix(30.7116 8.69412e-13 -1.51197e-12 127.63 -0.611684 -63.8152)">
<stop offset="0" stop-color="#FFBC7E"/>
<stop offset="1" stop-color="#FED8B5"/>
</linearGradient>
<linearGradient id="paint20_linear" x1="0" y1="0" x2="1" y2="0" gradientUnits="userSpaceOnUse" gradientTransform="matrix(6.53535e-15 114.582 -106.73 7.01613e-15 106.73 -7.01613e-15)">
<stop offset="0.826579" stop-color="#FFC000"/>
<stop offset="0.994475" stop-color="#FFA600"/>
</linearGradient>
<linearGradient id="paint27_linear" x1="0" y1="0" x2="1" y2="0" gradientUnits="userSpaceOnUse" gradientTransform="matrix(21.234 5.68926e-13 -1.04537e-12 83.5189 -0.422919 -41.7595)">
<stop offset="0" stop-color="#FFBC7E"/>
<stop offset="1" stop-color="#FED8B5"/>
</linearGradient>
<linearGradient id="paint28_linear" x1="0" y1="0" x2="1" y2="0" gradientUnits="userSpaceOnUse" gradientTransform="matrix(22.1546 -9.79111 11.1216 11.3406 8.57495 37.6535)">
<stop offset="0" stop-color="#D6121C"/>
<stop offset="1" stop-color="#F63349"/>
</linearGradient>
<linearGradient id="paint29_linear" x1="0" y1="0" x2="1" y2="0" gradientUnits="userSpaceOnUse" gradientTransform="matrix(30.8422 -21.2393 15.926 23.1169 0.965055 64.0625)">
<stop offset="0.0593319" stop-color="#D6121C"/>
<stop offset="1" stop-color="#F63349"/>
</linearGradient>
<linearGradient id="paint32_linear" x1="0" y1="0" x2="1" y2="0" gradientUnits="userSpaceOnUse" gradientTransform="matrix(26.1536 2.61688e-13 -1.28757e-12 38.4161 -0.520902 -19.208)">
<stop offset="0" stop-color="#FFBC7E"/>
<stop offset="1" stop-color="#FED8B5"/>
</linearGradient>
<linearGradient id="paint59_linear" x1="0" y1="0" x2="1" y2="0" gradientUnits="userSpaceOnUse" gradientTransform="matrix(2.4164e-15 90.464 -39.4629 5.53932e-15 39.4629 -5.53932e-15)">
<stop offset="0" stop-color="#C6D5E9"/>
<stop offset="0.994475" stop-color="#DBE7F8"/>
</linearGradient>
<linearGradient id="paint60_linear" x1="0" y1="0" x2="1" y2="0" gradientUnits="userSpaceOnUse" gradientTransform="matrix(2.46307e-15 34.1566 -40.2251 2.09149e-15 40.2251 -2.09149e-15)">
<stop offset="0" stop-color="#C6D5E9"/>
<stop offset="0.994475" stop-color="#DBE7F8"/>
</linearGradient>
<linearGradient id="paint61_linear" x1="0" y1="0" x2="1" y2="0" gradientUnits="userSpaceOnUse" gradientTransform="matrix(2.60422e-15 55.7334 -42.5301 3.41268e-15 42.5301 -3.41268e-15)">
<stop offset="0" stop-color="#C6D5E9"/>
<stop offset="0.994475" stop-color="#DBE7F8"/>
</linearGradient>
<linearGradient id="paint62_linear" x1="0" y1="0" x2="1" y2="0" gradientUnits="userSpaceOnUse" gradientTransform="matrix(2.18811e-15 51.049 -35.7345 3.12585e-15 35.7345 -3.12585e-15)">
<stop offset="0" stop-color="#C6D5E9"/>
<stop offset="0.994475" stop-color="#DBE7F8"/>
</linearGradient>
<linearGradient id="paint108_linear" x1="0" y1="0" x2="1" y2="0" gradientUnits="userSpaceOnUse" gradientTransform="matrix(1.75603e-15 65.8521 -28.6782 4.03228e-15 28.6782 -4.03228e-15)">
<stop offset="0" stop-color="#C6D5E9"/>
<stop offset="0.994475" stop-color="#DBE7F8"/>
</linearGradient>
<linearGradient id="paint109_linear" x1="0" y1="0" x2="1" y2="0" gradientUnits="userSpaceOnUse" gradientTransform="matrix(1.78979e-15 24.8636 -29.2294 1.52246e-15 29.2294 -1.52246e-15)">
<stop offset="0" stop-color="#C6D5E9"/>
<stop offset="0.994475" stop-color="#DBE7F8"/>
</linearGradient>
<linearGradient id="paint110_linear" x1="0" y1="0" x2="1" y2="0" gradientUnits="userSpaceOnUse" gradientTransform="matrix(1.59019e-15 37.1594 -25.9697 2.27536e-15 25.9697 -2.27536e-15)">
<stop offset="0" stop-color="#C6D5E9"/>
<stop offset="0.994475" stop-color="#DBE7F8"/>
</linearGradient>
<linearGradient id="paint111_linear" x1="0" y1="0" x2="1" y2="0" gradientUnits="userSpaceOnUse" gradientTransform="matrix(1.89261e-15 40.5704 -30.9086 2.48422e-15 30.9086 -2.48422e-15)">
<stop offset="0" stop-color="#C6D5E9"/>
<stop offset="0.994475" stop-color="#DBE7F8"/>
</linearGradient>
<path id="path0_fill" d="M 203.37 0L -2.54755e-06 0L -2.54755e-06 124.227L 203.37 124.227L 203.37 0Z"/>
<path id="path1_fill" fill-rule="evenodd" d="M 0.0717428 1.06161e-07L 53.7365 1.06161e-07L 53.7365 28.0499L 85.763 28.0499L 85.763 17.6313L 125.795 3.20561L 125.795 55.2989L 159.423 55.2989L 159.423 12.8224L 203.411 12.8224L 203.411 95.9565L 0 95.9056L 0.0717428 1.06161e-07Z"/>
<path id="path2_fill" d="M 8.69565 0L 0 0L 0 8.69672L 8.69565 8.69672L 8.69565 0Z"/>
<path id="path3_fill" d="M 205.204 -2.54787e-06L 2.17391 -2.54787e-06C 0.973294 -2.54787e-06 0 0.97341 0 2.17418L 0 7.43308C 0 8.63384 0.973294 9.60726 2.17391 9.60726L 205.204 9.60726C 206.405 9.60726 207.378 8.63384 207.378 7.43308L 207.378 2.17418C 207.378 0.97341 206.405 -2.54787e-06 205.204 -2.54787e-06Z"/>
<path id="path4_fill" d="M 5.59783 -5.09573e-06L 2.54755e-06 -5.09573e-06L 2.54755e-06 47.2884L 5.59783 47.2884L 5.59783 -5.09573e-06Z"/>
<path id="path5_fill" d="M 5.59782 -5.09573e-06L -2.54755e-06 -5.09573e-06L -2.54755e-06 47.2884L 5.59782 47.2884L 5.59782 -5.09573e-06Z"/>
<path id="path6_fill" fill-rule="evenodd" d="M 13.3174 10.2681C 13.3174 10.2681 10.3957 15.9153 10.3739 15.9019C 9.93479 15.664 1.48607e-05 12.6815 1.48607e-05 12.6815L 0.878284 3.48861C 0.878284 3.48861 7.98698 5.2623 10.1696 2.11757C 12.5913 -1.3759 16.9131 -0.32794 15.3913 3.65733"/>
<path id="path7_fill" fill-rule="evenodd" d="M 14.0869 9.79975C 14.0869 9.79975 13.1609 15.7 13.1348 15.7L 2.43915 15.7L 2.33526e-05 8.21434C 2.33526e-05 8.21434 7.25653 7.17595 8.08262 3.44245C 9.00001 -0.705449 13.4 -1.3651 13.5 2.89803"/>
<path id="path8_fill" fill-rule="evenodd" d="M 1.87044 26.2349L 73.8704 1.06056C 73.8704 1.06056 77.4909 -1.86066 86.0265 1.99329C 94.5622 5.84724 144.005 48.6116 144.005 48.6116L 144.005 57.0039L 78.7143 19.3198L 44.8843 39.2878L 4.24592e-07 39.2878L 1.87044 26.2349Z"/>
<path id="path9_fill" fill-rule="evenodd" d="M -1.06148e-06 1.67128C -1.06148e-06 1.67128 3.31713e-06 29.6421 44.8843 29.6421C 89.7687 29.6421 166.45 27.7775 166.45 27.7775L 166.45 18.4538L 84.1583 6.33273C 84.1583 6.33273 23.4404 -3.9268 -1.06148e-06 1.67128Z"/>
<path id="path10_fill" fill-rule="evenodd" d="M 28.5854 20.7255C 28.1411 21.092 27.662 21.4141 27.155 21.6874C 27.1307 21.6409 27.9537 27.0989 26.0172 31.6856C 23.9302 36.6318 16.1802 36.7814 16.1802 36.7814C 16.1802 36.7814 13.9346 37.702 13.7246 38.8943C 13.0789 42.5565 15.8254 45.1603 15.8254 45.1603L 2.705 47.4649C 1.63544 47.5832 -2.44107 13.3585 2.1011 4.1348C 2.1011 4.1348 16.6141 -4.47494 22.082 3.15338C 25.9328 8.52621 26.0276 14.1695 28.6933 18.2422C 29.1459 18.9366 29.5602 19.9346 28.5854 20.7255Z"/>
<path id="path11_fill" fill-rule="evenodd" d="M 22.5212 0.174144C 24.5064 0.829442 34.986 3.13884 34.3934 5.33259L 4.19773 75.2477C 3.60469 77.4414 3.31206 79.2825 1.32815 78.6272C -0.655761 77.9719 0.012085 76.2556 0.603824 74.0614L 17.8547 2.96055C 18.4473 0.766807 20.5369 -0.480284 22.5212 0.174144Z"/>
<path id="path12_fill" fill-rule="evenodd" d="M 11.9082 0.174338C 9.91388 0.829635 -0.570041 3.13904 0.0243068 5.33278L 30.3178 75.2478C 30.9121 77.4416 31.2065 79.2823 33.2008 78.6274C 35.1952 77.9725 34.5234 76.2558 33.9278 74.0616L 16.5973 2.96032C 16.0017 0.766576 13.9047 -0.480525 11.9082 0.174338Z"/>
<path id="path13_fill" fill-rule="evenodd" d="M 96.5307 113.53C 88.7194 113.53 47.319 115.897 30.1394 113.53C 12.9598 111.163 2.73941 24.009 0.216804 12.6537C -2.3058 1.29842 18.0185 8.49288e-07 18.0185 8.49288e-07C 18.0185 8.49288e-07 26.4329 35.7561 41.8268 62.2485L 80.612 62.2485C 80.612 62.2485 88.0033 62.402 88.115 65.4915C 88.192 67.6274 89.9942 81.0643 85.0955 90.2193L 91.8555 90.2193C 91.8555 90.2193 96.5816 90.2145 97.4642 90.2193C 109.782 90.2919 110.164 113.53 96.5307 113.53Z"/>
<path id="path14_fill" fill-rule="evenodd" d="M 32.8393 19.7305C 33.0132 23.1761 35.874 23.6218 36.4188 25.3481C 36.9636 27.0744 35.3193 29.0299 31.4597 28.1311C 26.5997 27.0005 26.8376 31.0758 28.2384 33.5187C 29.1776 35.1572 30.021 35.2263 30.7893 35.432C 31.1677 35.4024 31.5399 35.3179 31.8941 35.1811C 34.4901 34.0831 35.2254 35.4229 35.1306 37.9127C 34.941 42.9133 26.6027 47.8213 27.4932 54.8657C 29.368 69.7027 21.611 83.8962 21.611 83.8962C 21.611 83.8962 -4.54376 80.4175 0.693201 64.8269C 2.40016 59.7463 6.43232 58.8696 7.63449 54.8657C 8.83667 50.8617 4.20971 49.7742 3.81536 45.6998C 2.93362 36.5882 12.8193 36.7965 8.81536 29.0325C 4.74145 21.1368 5.8697 13.6967 14.511 5.9797C 15.8062 4.83505 17.255 3.87711 18.8154 3.13369C 28.7049 -2.47569 44.8858 -1.61297 49.6415 14.5303C 49.6428 14.532 32.6671 16.2836 32.8393 19.7305Z"/>
<path id="path15_fill" fill-rule="evenodd" d="M 0 28.1387L 5.44784 30.3563L 17.8826 0.0104339C 17.8826 0.0104339 8.36954 -0.91273 2.36519 14.614C 3.2698 16.3354 3.69581 18.2681 3.59869 20.2103C 3.50156 22.1526 2.88489 24.0332 1.81306 25.6557C 2.87828 23.9355 0 28.1387 0 28.1387Z"/>
<path id="path16_fill" fill-rule="evenodd" d="M 12.5478 9.97914e-06L 14.0261 0.601811L 1.47824 31.2264L 2.54755e-05 30.6246L 12.5478 9.97914e-06Z"/>
<path id="path17_fill" fill-rule="evenodd" d="M 2.95219 32.7814L 8.83481 32.7814L 8.83481 1.01915e-05C 8.83481 1.01915e-05 -0.321681 2.7338 0.00875421 19.3715C 1.49825 20.6222 2.62513 22.2495 3.27206 24.0838C 3.919 25.9182 4.06229 27.8925 3.687 29.801C 4.01743 27.8051 2.95219 32.7814 2.95219 32.7814Z"/>
<path id="path18_fill" fill-rule="evenodd" d="M 0 5.09573e-06L 1.57391 5.09573e-06L 1.57391 33.0614L 0 33.0614L 0 5.09573e-06Z"/>
<path id="path19_fill" fill-rule="evenodd" d="M -4.03363e-06 10.6926C 0.374344 12.4272 4.82347 25.1535 15.3691 25.2305C 20.5343 25.2683 26.2661 22.4736 24.8 13.4847C 23.6535 6.45252 19.8574 2.65403e-06 19.8574 2.65403e-06L 2.29218 9.1659L -4.03363e-06 10.6926Z"/>
<path id="path20_fill" fill-rule="evenodd" d="M 11.1809 31.0603L 7.22434 25.1248C 7.22434 25.1248 5.51434 24.5595 3.0126 21.0021C 0.510859 17.4447 1.13262 18.0696 0.763055 15.4084C 0.417403 12.9203 9.12874e-06 7.77009 9.12874e-06 7.77009C 9.12874e-06 7.77009 2.15391 6.20946 3.05434 9.29766C 3.95478 12.3859 5.45175 19.8494 8.60392 18.7879C 11.7561 17.7265 16.4578 14.6048 16.4578 14.6048C 16.4578 14.6048 17.9431 12.8003 16.3452 10.1826C 16.3452 10.1826 12.5874 13.0812 11.11 12.9712C 9.63261 12.8611 8.84347 10.8161 8.84347 10.8161L 10.5887 9.88686C 10.5887 9.88686 8.22696 10.0482 7.91478 9.07024C 7.60261 8.09229 9.19565 7.26697 9.19565 7.26697C 9.19565 7.26697 8.32391 7.36916 7.39391 5.98552C 6.46391 4.60187 16.5287 -3.50332e-06 16.5287 -3.50332e-06C 16.5287 -3.50332e-06 18.9265 1.4593 17.92 2.61988C 17.92 2.61988 20.417 3.65262 19.3135 5.23934C 19.3135 5.23934 21.2148 6.08857 19.37 7.45047C 19.37 7.45047 19.0713 15.7019 17.0335 19.9007C 14.9957 24.0995 19.0852 29.0814 19.0852 29.0814L 11.1809 31.0603Z"/>
<path id="path21_fill" fill-rule="evenodd" d="M 28.9878 4.66188L 40.2087 2.33554e-06L 51.4296 39.1596C 51.4296 39.1596 54.3891 46.1335 42.0791 46.6192C 29.7691 47.1049 6.54565 29.8345 6.54565 29.8345L -3.82133e-06 21.4422L 3.37651 0.802275L 35.5339 29.8332L 28.9878 4.66188Z"/>
<path id="path22_fill" fill-rule="evenodd" d="M 17.9054 0.730089L 29.4632 6.2635e-06C 29.4632 6.2635e-06 43.6728 12.6442 44.4828 29.027C 45.5697 51.0119 56.7032 71.8018 56.7032 71.8018L 22.3376 75.621C 22.3376 75.621 -5.41764 19.4924 0.948878 9.86164C 5.78453 2.5464 10.6737 1.4767 17.9054 0.730089Z"/>
<path id="path23_fill" fill-rule="evenodd" d="M 0 1.60618L 15.9896 16.8119C 15.9896 16.8119 14.1074 -0.404939 12.1709 0.00728516C 9.27043 0.625187 0 1.60618 0 1.60618Z"/>
<path id="path24_fill" fill-rule="evenodd" d="M 51.4762 59.307L 51.4762 67.6993L 4.11534 67.6993C 4.11534 67.6993 -1.47639 67.7324 0.376221 60.241C 2.22883 52.7497 4.79405 11.1481 15.0093 0.568938C 18.9388 -3.50069 30.688 15.5964 30.688 15.5964L 16.8223 54.7638C 16.8223 54.7638 47.9232 57.9494 51.4762 59.307Z"/>
<path id="path25_fill" fill-rule="evenodd" d="M -6.58118e-06 0.93273L 14.9609 -8.49289e-07C 14.9609 -8.49289e-07 21.087 3.83742 23.377 7.45917C 25.667 11.0809 25.4639 15.4854 21.5074 13.9856C 17.5509 12.4859 10.2422 10.1634 7.48131 9.32376C 4.72044 8.48409 0.000444548 8.39102 0.000444548 8.39102L 0.000444548 0.93273L -6.58118e-06 0.93273Z"/>
<path id="path26_fill" fill-rule="evenodd" d="M 2.68898 0.174338C 0.697679 0.829635 -0.43708 3.13904 0.158572 5.33278L 21.0977 75.2478C 21.6977 77.4416 21.989 79.2823 23.9846 78.6274C 25.9803 77.9725 25.3064 76.2558 24.7107 74.0616L 7.3803 2.96032C 6.78465 0.766576 4.68464 -0.480525 2.68898 0.174338Z"/>
<path id="path27_fill" fill-rule="evenodd" d="M 22.5251 0.174144C 24.5077 0.829442 25.6381 3.13884 25.0468 5.33259L 4.19902 75.2477C 3.60772 77.4414 3.31642 79.2825 1.32947 78.6272C -0.657491 77.9719 0.0120599 76.2556 0.607712 74.0614L 17.8556 2.96055C 18.4512 0.766807 20.5382 -0.480284 22.5251 0.174144Z"/>
<path id="path28_fill" d="M 64.3478 0L 2.17391 0C 0.973294 0 0 0.973413 0 2.17418L 0 6.95737C 0 8.15814 0.973294 9.13155 2.17391 9.13155L 64.3478 9.13155C 65.5484 9.13155 66.5217 8.15814 66.5217 6.95737L 66.5217 2.17418C 66.5217 0.973413 65.5484 0 64.3478 0Z"/>
<path id="path29_fill" d="M 81.3044 0L 1.73913 0C 0.778635 0 0 0.77873 0 1.73934L 0 52.6151C 0 53.5757 0.778635 54.3545 1.73913 54.3545L 81.3044 54.3545C 82.2648 54.3545 83.0435 53.5757 83.0435 52.6151L 83.0435 1.73934C 83.0435 0.77873 82.2648 0 81.3044 0Z"/>
<path id="path30_fill" fill-rule="evenodd" d="M 1.7391 5.09573e-06L 76.9261 5.09573e-06C 77.3873 5.09573e-06 77.8297 0.183255 78.1559 0.509446C 78.482 0.835636 78.6652 1.27805 78.6652 1.73935L 78.6652 49.4082C 78.6652 49.8695 78.482 50.3119 78.1559 50.6381C 77.8297 50.9643 77.3873 51.1476 76.9261 51.1476L 1.7391 51.1476C 1.27786 51.1476 0.835529 50.9643 0.509379 50.6381C 0.183229 50.3119 -2.54755e-05 49.8695 -2.54755e-05 49.4082L -2.54755e-05 1.73935C -2.54755e-05 1.27805 0.183229 0.835636 0.509379 0.509446C 0.835529 0.183255 1.27786 5.09573e-06 1.7391 5.09573e-06Z"/>
<path id="path31_fill" d="M 105.217 0L 0 0L 0 4.78319L 105.217 4.78319L 105.217 0Z"/>
<path id="path32_fill" d="M 50 0L 0 0L 0 51.7455L 50 51.7455L 50 0Z"/>
<path id="path33_fill" d="M 38.6957 0L 0 0L 0 1.73934L 38.6957 1.73934L 38.6957 0Z"/>
<path id="path34_fill" d="M 50 0L 0 0L 0 8.26188L 50 8.26188L 50 0Z"/>
<path id="path35_fill" d="M 33.0435 0L 0 0L 0 1.73934L 33.0435 1.73934L 33.0435 0Z"/>
<path id="path36_fill" d="M 43.4783 0L 0 0L 0 26.525L 43.4783 26.525L 43.4783 0Z"/>
<path id="path37_fill" d="M 39.5652 0L 0 0L 0 40.8746L 39.5652 40.8746L 39.5652 0Z"/>
<path id="path38_fill" d="M 39.5652 0L 0 0L 0 6.52254L 39.5652 6.52254L 39.5652 0Z"/>
<path id="path39_fill" d="M 30.4348 0L 0 0L 0 1.30451L 30.4348 1.30451L 30.4348 0Z"/>
<path id="path40_fill" d="M 26.087 0L 0 0L 0 1.30451L 26.087 1.30451L 26.087 0Z"/>
<path id="path41_fill" d="M 34.3478 0L 0 0L 0 20.8721L 34.3478 20.8721L 34.3478 0Z"/>
<path id="path42_fill" d="M 34.3478 0L 0 0L 0 35.2217L 34.3478 35.2217L 34.3478 0Z"/>
<path id="path43_fill" d="M 26.5217 0L 0 0L 0 1.30451L 26.5217 1.30451L 26.5217 0Z"/>
<path id="path44_fill" d="M 34.3478 0L 0 0L 0 5.6259L 34.3478 5.6259L 34.3478 0Z"/>
<path id="path45_fill" d="M 22.6087 0L 0 0L 0 1.30451L 22.6087 1.30451L 22.6087 0Z"/>
<path id="path46_fill" d="M 30 0L 0 0L 0 18.2631L 30 18.2631L 30 0Z"/>
<path id="path47_fill" d="M 180.87 0L 0 0L 0 141.756L 180.87 141.756L 180.87 0Z"/>
<path id="path48_fill" d="M 82.3913 0L -1.27378e-05 0L -1.27378e-05 130.587L 82.3913 130.587L 82.3913 0Z"/>
<path id="path49_fill" d="M 82.3913 0L 1.48607e-05 0L 1.48607e-05 130.587L 82.3913 130.587L 82.3913 0Z"/>
<path id="path50_fill" d="M 1.84785 3.68305C 2.86838 3.68305 3.69568 2.85857 3.69568 1.84152C 3.69568 0.824474 2.86838 0 1.84785 0C 0.827326 0 2.54755e-05 0.824474 2.54755e-05 1.84152C 2.54755e-05 2.85857 0.827326 3.68305 1.84785 3.68305Z"/>
<path id="path51_fill" d="M 1.84785 3.6961C 2.86838 3.6961 3.69568 2.8687 3.69568 1.84805C 3.69568 0.827395 2.86838 -6.36966e-06 1.84785 -6.36966e-06C 0.827326 -6.36966e-06 2.54755e-05 0.827395 2.54755e-05 1.84805C 2.54755e-05 2.8687 0.827326 3.6961 1.84785 3.6961Z"/>
<path id="path52_fill" fill-rule="evenodd" d="M 21.1726 86.3196C 21.1726 86.3196 5.05134 68.2086 11.3383 51.2461C 19.0118 30.5449 1.25524 22.2365 0.0987216 11.9639C -1.23084 0.146399 11.1152 -1.98995 22.3035 1.55222C 33.1061 4.97177 45.0352 28.1859 36.6244 48.4401C 26.7948 72.1113 25.3952 80.8206 25.3848 87.7223C 25.3744 94.624 21.1726 86.3196 21.1726 86.3196Z"/>
<path id="path53_fill" fill-rule="evenodd" d="M 35.5602 25.5556C 35.5602 25.5556 28.012 14.2964 9.16588 21.4442C -2.3489 25.8121 -4.99108 1.37653 12.8837 0.0811505C 24.482 -0.759822 37.4646 4.75652 39.7394 25.0112C 42.0141 45.2658 35.5602 25.5556 35.5602 25.5556Z"/>
<path id="path54_fill" fill-rule="evenodd" d="M 3.81005 46.0783C 3.81005 46.0783 -1.20516 28.1631 19.264 23.6312C 39.7331 19.0994 44.7101 20.5982 41.7422 9.60211C 38.7744 -1.39402 27.2205 -1.75317 17.8592 2.58736C 8.49787 6.92789 -3.5756 26.1337 1.00092 46.0783C 5.57745 66.0229 3.81093 48.8839 3.81093 48.8839L 3.81093 46.0783L 3.81005 46.0783Z"/>
<path id="path55_fill" fill-rule="evenodd" d="M 32.9245 51.049C 32.9245 51.049 29.4897 32.8415 18.8762 30.0029C 4.88882 26.2633 -3.04161 19.1942 1.09665 6.21999C 4.94187 -5.83496 26.3171 1.62249 30.1149 11.7646C 33.9127 21.9067 35.7345 51.0472 35.7345 51.0472L 32.9245 51.0472L 32.9245 51.049Z"/>
<path id="path56_fill" fill-rule="evenodd" d="M -1.59222e-06 6.36966e-06L 32.3113 6.36966e-06L 26.7135 33.6698L 4.6674 33.6698L -1.59222e-06 6.36966e-06Z"/>
<path id="path57_fill" d="M 38.2609 0L 0 0L 0 3.91352L 38.2609 3.91352L 38.2609 0Z"/>
<path id="path58_fill" d="M 6.08696 0L 0 0L 0 124.798L 6.08696 124.798L 6.08696 0Z"/>
<path id="path59_fill" d="M 193.287 2.54787e-06L 2.1739 2.54787e-06C 0.973282 2.54787e-06 -1.16763e-05 0.973415 -1.16763e-05 2.17418L -1.16763e-05 7.09347C -1.16763e-05 8.29424 0.973282 9.26765 2.1739 9.26765L 193.287 9.26765C 194.488 9.26765 195.461 8.29424 195.461 7.09347L 195.461 2.17418C 195.461 0.973415 194.488 2.54787e-06 193.287 2.54787e-06Z"/>
<path id="path60_fill" d="M 47.3913 0L 0 0L 0 125.233L 47.3913 125.233L 47.3913 0Z"/>
<path id="path61_fill" d="M 42.6087 0L 0 0L 0 20.8721L 42.6087 20.8721L 42.6087 0Z"/>
<path id="path62_fill" d="M 1.84785 3.68218C 2.86838 3.68218 3.69568 2.85789 3.69568 1.84109C 3.69568 0.824277 2.86838 -1.27393e-05 1.84785 -1.27393e-05C 0.827326 -1.27393e-05 2.54755e-05 0.824277 2.54755e-05 1.84109C 2.54755e-05 2.85789 0.827326 3.68218 1.84785 3.68218Z"/>
<path id="path63_fill" d="M 1.84785 3.65523C 2.86838 3.65523 3.69568 2.83698 3.69568 1.82761C 3.69568 0.81825 2.86838 -2.54787e-06 1.84785 -2.54787e-06C 0.827326 -2.54787e-06 2.54755e-05 0.81825 2.54755e-05 1.82761C 2.54755e-05 2.83698 0.827326 3.65523 1.84785 3.65523Z"/>
<path id="path64_fill" d="M 1.83481 3.68218C 2.84813 3.68218 3.66958 2.85789 3.66958 1.84109C 3.66958 0.824277 2.84813 -1.27393e-05 1.83481 -1.27393e-05C 0.821486 -1.27393e-05 -1.48607e-05 0.824277 -1.48607e-05 1.84109C -1.48607e-05 2.85789 0.821486 3.68218 1.83481 3.68218Z"/>
<path id="path65_fill" d="M 1.84785 3.6961C 2.86838 3.6961 3.69568 2.8687 3.69568 1.84805C 3.69568 0.827401 2.86838 0 1.84785 0C 0.827326 0 2.54755e-05 0.827401 2.54755e-05 1.84805C 2.54755e-05 2.8687 0.827326 3.6961 1.84785 3.6961Z"/>
<path id="path66_fill" fill-rule="evenodd" d="M -1.27378e-05 4.88341e-06L 20.887 1.88458L 16.1391 9.42289L -1.27378e-05 9.42289L -1.27378e-05 4.88341e-06Z"/>
<path id="path67_fill" fill-rule="evenodd" d="M 4.44346 14.1339L -4.24592e-06 1.88458L 43.3522 8.28056e-06L 45.5739 16.0185L 4.44346 14.1339Z"/>
<path id="path68_fill" fill-rule="evenodd" d="M -6.36889e-06 2.97251e-06L 7.57828 68.951L 47.3739 68.951L 53.0565 2.97251e-06L -6.36889e-06 2.97251e-06Z"/>
<path id="path69_fill" d="M 20.7478 -2.54787e-06L 1.08696 -2.54787e-06C 0.486647 -2.54787e-06 0 0.486704 0 1.08709L 0 3.60087C 0 4.20126 0.486647 4.68796 1.08696 4.68796L 20.7478 4.68796C 21.3481 4.68796 21.8348 4.20126 21.8348 3.60087L 21.8348 1.08709C 21.8348 0.486704 21.3481 -2.54787e-06 20.7478 -2.54787e-06Z"/>
<path id="path70_fill" d="M 47.8261 0L 1.73913 0C 0.778635 0 0 0.77873 0 1.73934L 0 33.4824C 0 34.443 0.778635 35.2217 1.73913 35.2217L 47.8261 35.2217C 48.7866 35.2217 49.5652 34.443 49.5652 33.4824L 49.5652 1.73934C 49.5652 0.77873 48.7866 0 47.8261 0Z"/>
<path id="path71_fill" d="M 43.0435 0L 0 0L 0 22.6115L 43.0435 22.6115L 43.0435 0Z"/>
<path id="path72_fill" d="M 0 0L 72.1739 0L 72.1739 21.7418C 72.1739 22.2031 71.9907 22.6455 71.6645 22.9717C 71.3384 23.2979 70.896 23.4811 70.4348 23.4811L 1.73913 23.4811C 1.27788 23.4811 0.835555 23.2979 0.509405 22.9717C 0.183254 22.6455 0 22.2031 0 21.7418L 0 0Z"/>
<path id="path73_fill" fill-rule="evenodd" d="M 0 5.42414L 5.94785 4.24644e-07L 67.6739 4.24644e-07L 72.7348 5.40632"/>
<path id="path74_fill" d="M 1.27378e-05 -2.54787e-06L 45.5435 -2.54787e-06L 45.5435 24.5547C 45.5435 24.7854 45.4519 25.0066 45.2888 25.1697C 45.1257 25.3328 44.9046 25.4244 44.6739 25.4244L 0.869578 25.4244C 0.638955 25.4244 0.41779 25.3328 0.254715 25.1697C 0.09164 25.0066 1.27378e-05 24.7854 1.27378e-05 24.5547L 1.27378e-05 -2.54787e-06Z"/>
<path id="path75_fill" d="M 0 0L 16.087 0L 16.087 15.6541C 16.087 15.7694 16.0412 15.88 15.9596 15.9616C 15.8781 16.0431 15.7675 16.0889 15.6522 16.0889L 0.434783 16.0889C 0.319471 16.0889 0.208862 16.0431 0.127325 15.9616C 0.0457871 15.88 0 15.7694 0 15.6541L 0 0Z"/>
<path id="path76_fill" d="M 17.3913 0L 0 0L 0 2.17418L 17.3913 2.17418L 17.3913 0Z"/>
<path id="path77_fill" d="M 62.6087 0L 0 0L 0 2.17418L 62.6087 2.17418L 62.6087 0Z"/>
<path id="path78_fill" d="M 58.2609 0L 0 0L 0 74.3569L 58.2609 74.3569L 58.2609 0Z"/>
<path id="path79_fill" d="M 54.7826 0L 0 0L 0 69.1389L 54.7826 69.1389L 54.7826 0Z"/>
<path id="path80_fill" fill-rule="evenodd" d="M 1.27378e-05 0L 34.2783 0L 34.2783 46.3235L 1.27378e-05 46.3235L 1.27378e-05 0Z"/>
<path id="path81_fill" d="M 6.29739 12.5963C 9.77535 12.5963 12.5948 9.77654 12.5948 6.29816C 12.5948 2.81978 9.77535 5.62654e-06 6.29739 5.62654e-06C 2.81944 5.62654e-06 -2.54755e-06 2.81978 -2.54755e-06 6.29816C -2.54755e-06 9.77654 2.81944 12.5963 6.29739 12.5963Z"/>
<path id="path82_fill" d="M 9.48087 1.53934e-06L 33.4091 1.53934e-06C 35.5716 1.53934e-06 37.6454 0.859133 39.1745 2.38839C 40.7036 3.91765 41.5626 5.99177 41.5626 8.15447L 41.5626 53.0769L 7.69574e-07 53.0769L 7.69574e-07 9.48203C 7.69574e-07 6.96724 0.998877 4.55545 2.77689 2.77722C 4.55489 0.998996 6.96638 1.53934e-06 9.48087 1.53934e-06Z"/>
<path id="path83_stroke" d="M 35.282 15.4367L 33.2858 15.313L 33.282 15.3748L 33.282 15.4367L 35.282 15.4367ZM 37.282 310.956L 37.282 15.4367L 33.282 15.4367L 33.282 310.956L 37.282 310.956ZM 35.282 15.4367C 37.2782 15.5604 37.2782 15.559 37.2783 15.5576C 37.2784 15.5571 37.2784 15.5556 37.2785 15.5545C 37.2786 15.5532 37.2788 15.5499 37.2789 15.5473C 37.2791 15.5437 37.2796 15.5356 37.28 15.5284C 37.2805 15.5175 37.2816 15.4957 37.2825 15.4739C 37.2839 15.4373 37.2861 15.3714 37.2874 15.2997C 37.2897 15.1707 37.29 14.9548 37.2825 14.7097C 37.2675 14.2502 37.2155 13.5237 37.0904 12.7145C 36.8442 11.1644 36.2165 8.87178 34.9441 6.6958C 32.2354 2.1425 26.6951 -2 15.959 -2L 15.959 2C 25.5024 2 29.6236 5.57584 31.5065 8.74087C 32.53 10.4241 32.9305 11.9906 33.1388 13.3349C 33.2408 13.9728 33.2726 14.4524 33.2845 14.8371C 33.2904 15.014 33.2899 15.1298 33.2881 15.227C 33.2874 15.2683 33.2867 15.2891 33.2858 15.3109C 33.2855 15.3183 33.2855 15.3187 33.2853 15.3225C 33.2852 15.3228 33.2854 15.3206 33.2854 15.3205C 33.2853 15.3212 33.2856 15.317 33.2855 15.3174C 33.2856 15.3168 33.2857 15.3157 33.2857 15.3154C 33.2857 15.3142 33.2858 15.313 35.282 15.4367ZM 15.959 -2C 10.6503 -2 6.75906 -0.991464 3.95534 0.699299C 1.11584 2.41163 -0.463495 4.7378 -1.26593 7.06685C -2.00965 9.30177 -2.06942 11.6545 -1.92711 13.2106C -1.84972 14.0196 -1.72038 14.7429 -1.62077 15.2003C -1.56751 15.4429 -1.51425 15.6545 -1.48007 15.782C -1.46117 15.8522 -1.44319 15.9157 -1.4328 15.9515C -1.42668 15.9724 -1.42055 15.993 -1.41738 16.0035C -1.41532 16.0103 -1.41307 16.0177 -1.41203 16.0211C -1.41127 16.0235 -1.41036 16.0265 -1.40998 16.0277C -1.40967 16.0287 -1.40927 16.03 -1.40912 16.0305C -1.40873 16.0317 -1.40837 16.0329 0.500688 15.4367C 2.40974 14.8404 2.41007 14.8415 2.41038 14.8425C 2.41046 14.8427 2.41076 14.8437 2.41092 14.8442C 2.41083 14.8439 2.41184 14.8472 2.41167 14.8466C 2.41177 14.847 2.41211 14.8481 2.41192 14.8474C 2.41062 14.8431 2.41013 14.8416 2.40775 14.8333C 2.40114 14.8107 2.39452 14.7875 2.38306 14.7446C 2.35651 14.646 2.32599 14.526 2.28704 14.3465C 2.2022 13.9597 2.11331 13.477 2.05557 12.8388C 1.92762 11.5005 1.92999 9.99407 2.5159 8.36983C 3.04308 6.83971 4.06084 5.30671 6.02097 4.12467C 8.01688 2.92105 11.1278 2 15.959 2L 15.959 -2Z"/>
<path id="path84_fill" fill-rule="evenodd" d="M 1.32685e-06 7.6436e-06L 55.9361 7.6436e-06L 55.9361 8.68542L 1.32685e-06 8.68542L 1.32685e-06 7.6436e-06Z"/>
<path id="path85_fill" d="M 133.913 0L 0 0L 0 76.0963L 133.913 76.0963L 133.913 0Z"/>
<path id="path86_fill" d="M 123.478 0L 0 0L 0 65.6602L 123.478 65.6602L 123.478 0Z"/>
<path id="path87_fill" fill-rule="evenodd" d="M -1.48607e-05 -1.53934e-06L 26.4261 -1.53934e-06L 26.4261 16.8364L -1.48607e-05 16.8364L -1.48607e-05 -1.53934e-06Z"/>
<path id="path88_fill" d="M 22.4174 -2.54787e-06L 1.27378e-05 -2.54787e-06L 1.27378e-05 24.84L 22.4174 24.84L 22.4174 -2.54787e-06Z"/>
<path id="path89_fill" fill-rule="evenodd" d="M -1.91067e-05 3.57739L 22.1304 -2.12322e-07L 26.0869 24.5247L 3.95654 28.1021L -1.91067e-05 3.57739Z"/>
<path id="path90_fill" fill-rule="evenodd" d="M 5.09511e-05 2.54787e-06L 26.4304 2.54787e-06L 26.4304 16.8364L 5.09511e-05 16.8364L 5.09511e-05 2.54787e-06Z"/>
<path id="path91_fill" d="M 26.4131 0L 3.82133e-05 0L 3.82133e-05 32.0552L 26.4131 32.0552L 26.4131 0Z"/>
<path id="path92_stroke" d="M 68.3044 35.6565C 68.3044 53.6926 53.6851 68.3131 35.6522 68.3131L 35.6522 74.3131C 56.9995 74.3131 74.3044 57.0056 74.3044 35.6565L 68.3044 35.6565ZM 35.6522 68.3131C 17.6192 68.3131 3 53.6926 3 35.6565L -3 35.6565C -3 57.0056 14.3048 74.3131 35.6522 74.3131L 35.6522 68.3131ZM 3 35.6565C 3 17.6205 17.6192 3 35.6522 3L 35.6522 -3C 14.3048 -3 -3 14.3075 -3 35.6565L 3 35.6565ZM 35.6522 3C 53.6851 3 68.3044 17.6205 68.3044 35.6565L 74.3044 35.6565C 74.3044 14.3075 56.9995 -3 35.6522 -3L 35.6522 3Z"/>
<path id="path93_stroke" d="M -1.27378e-05 26.9246L -1.50001 26.9246L -1.50001 27.6995L -0.868015 28.1479L -1.27378e-05 26.9246ZM -1.50001 0L -1.50001 26.9246L 1.49999 26.9246L 1.49999 0L -1.50001 0ZM -0.868015 28.1479L 13.4929 38.3374L 15.2289 35.8908L 0.867989 25.7013L -0.868015 28.1479Z"/>
<path id="path94_fill" fill-rule="evenodd" d="M 13.2935 62.8355C 13.2935 62.8355 25.0065 49.6521 20.4413 37.3045C 14.8631 22.2353 27.7674 16.1871 28.6066 8.70928C 29.5718 0.106918 20.6023 -1.44849 12.4718 1.12965C 4.61966 3.61952 -4.04998 20.5181 2.06306 35.2617C 9.20654 52.4929 10.2239 58.8328 10.2326 63.8565C 10.2413 68.8801 13.2935 62.8355 13.2935 62.8355Z"/>
<path id="path95_fill" fill-rule="evenodd" d="M 3.38755 18.6026C 3.38755 18.6026 8.87456 10.4068 22.5702 15.6105C 30.9354 18.79 32.8572 1.00217 19.8659 0.0590126C 11.4398 -0.552801 2.00495 3.46248 0.352775 18.2065C -1.2994 32.9504 3.38755 18.6026 3.38755 18.6026Z"/>
<path id="path96_fill" fill-rule="evenodd" d="M 2.04348 37.1594C 2.04348 37.1594 4.53912 23.906 12.2522 21.841C 22.4174 19.1194 28.1782 13.9727 25.1739 4.52802C 22.3782 -4.24697 6.84346 1.17979 4.08694 8.56461C 1.33041 15.9494 2.12296e-05 37.1594 2.12296e-05 37.1594L 2.04348 37.1594Z"/>
<path id="path97_fill" fill-rule="evenodd" d="M 28.1377 33.5418C 28.1377 33.5418 31.7811 20.5011 16.9072 17.2024C 2.03327 13.9037 -1.58404 14.9943 0.572479 6.98985C 2.729 -1.01461 11.1246 -1.27638 17.929 1.88357C 24.7333 5.04352 33.5072 19.0235 30.1811 33.5418C 26.855 48.0601 28.1377 35.5855 28.1377 35.5855L 28.1377 33.5418Z"/>
<path id="path98_fill" fill-rule="evenodd" d="M 8.49185e-06 -6.05118e-06L 24.6173 -6.05118e-06L 20.3522 25.4857L 3.5565 25.4857L 8.49185e-06 -6.05118e-06Z"/>
<path id="path99_fill" d="M 29.1304 0L 0 0L 0 2.60901L 29.1304 2.60901L 29.1304 0Z"/>
<path id="path100_fill" d="M 64.8504 0L 0 0L 0 11.2244L 64.8504 11.2244L 64.8504 0Z"/>
<path id="path101_fill" d="M 64.8504 -5.09573e-06L 0 -5.09573e-06L 0 11.224L 64.8504 11.224L 64.8504 -5.09573e-06Z"/>
<path id="path102_fill" d="M 12.0109 0L 0 0L 0 50.4953L 12.0109 50.4953L 12.0109 0Z"/>
<path id="path103_fill" fill-rule="evenodd" d="M -1.19417e-06 0.883153L 7.15087 -5.30805e-07L 11.7596 37.3833L 4.60782 38.2668L -1.19417e-06 0.883153Z"/>
<path id="path104_fill" d="M 12.0109 -2.54787e-06L 0 -2.54787e-06L 0 37.6676L 12.0109 37.6676L 12.0109 -2.54787e-06Z"/>
<path id="path105_fill" d="M 12.0109 0L 0 0L 0 39.2713L 12.0109 39.2713L 12.0109 0Z"/>
<path id="path106_fill" fill-rule="evenodd" d="M 11.8004 0.878361L 4.62391 1.10408e-05L 1.65856e-07 37.1654L 7.17652 38.0438L 11.8004 0.878361Z"/>
<path id="path107_fill" d="M 6.39957 2.54787e-06L 0 2.54787e-06L 0 37.6677L 6.39957 37.6677L 6.39957 2.54787e-06Z"/>
<path id="path108_fill" fill-rule="evenodd" d="M -6.36889e-07 1.63628L 11.9013 -1.189e-05L 18.413 28.82L 6.51218 30.4568L -6.36889e-07 1.63628Z"/>
</defs>
</svg>
